<svg width="393.9" height="93.745" viewBox="0 0 403.375 96" class="prefix__css-1j8o68f">
  <path xmlns="http://www.w3.org/2000/svg" d="M0 0h99v96H0zm4 4v88h91V4z" />
  <path
    d="M17 82.157V14h18.89v27.652L59.353 14H81.75L55.947 43.307l26.678 38.85H59.939L42.802 56.84l-6.913 7.692v17.624H17zM133.774 46.753l-7.941-10.023h-1.584v10.023H119V12h5.25v20.973h1.447l7.534-8.982h5.996l-9.073 10.498 10.091 12.263h-6.47zm15.702.43c-3.688 0-7.014-1.765-7.014-6.2 0-4.864 3.96-6.38 8.71-7.24l3.44-.633c1.493-.294 2.104-.973 2.104-2.06 0-2.805-2.195-3.732-4.458-3.732-2.466 0-4.48 1.086-4.819 4.004l-4.683-.86c.792-4.706 4.185-6.878 9.82-6.878 4.547 0 9.14 1.63 9.14 8.032v8.824c0 2.15.565 2.76 2.15 2.76h.361v3.553h-2.466c-2.557 0-4.095-.905-4.616-3.01h-.248c-1.765 2.49-4.684 3.44-7.422 3.44zm1.221-4.096c3.575 0 6.358-2.647 6.358-6.81l-5.815 1.29c-2.398.452-3.733 1.267-3.733 2.986 0 1.788 1.403 2.534 3.19 2.534zM185.721 12h5.204v34.753h-4.977l-.136-3.62c-1.358 2.579-4.254 4.14-7.58 4.14-5.905 0-10.792-4.548-10.792-11.878 0-7.286 4.91-11.833 10.792-11.833 3.236 0 6.087 1.47 7.49 3.936V12zm-6.335 30.861c3.778 0 6.72-3.077 6.72-7.466 0-4.367-2.964-7.444-6.72-7.444s-6.742 2.896-6.742 7.444c0 4.57 2.986 7.466 6.742 7.466zm33.53-18.869h5.205v22.76h-4.955l-.136-2.85c-1.516 2.082-3.982 3.28-7.014 3.28-5.068 0-8.19-2.782-8.19-7.873V23.991h5.249v14.186c0 3.44 2.082 4.752 4.502 4.752 2.874 0 5.317-1.63 5.34-5.86V23.99zm25.273-.43c5.905 0 10.77 4.48 10.77 11.833 0 7.398-4.865 11.878-10.77 11.878-3.258 0-6.108-1.516-7.489-3.982V58.02h-5.203V23.992h4.977l.136 3.71c1.357-2.602 4.253-4.14 7.58-4.14zm-1.131 19.3c3.687 0 6.697-2.806 6.697-7.467 0-4.638-3.01-7.421-6.697-7.421-3.802 0-6.765 3.077-6.765 7.42 0 4.39 2.964 7.467 6.765 7.467zm27.558 4.32c-6.878 0-11.97-4.457-11.97-11.833 0-7.307 5.046-11.788 11.97-11.788 6.945 0 11.991 4.48 11.991 11.788 0 7.376-5.068 11.834-11.991 11.834zm-.047-4.208c3.96 0 6.856-3.009 6.856-7.624 0-4.593-2.896-7.602-6.856-7.602-3.891 0-6.742 3.009-6.742 7.602 0 4.615 2.85 7.624 6.742 7.624zm22.558-15.159c1.109-2.262 4.027-4.05 7.33-4.072v4.75c-4.638 0-7.126 1.698-7.126 6.653v11.607h-5.227v-22.76h5.023v3.823zm19.412 18.938c-4.072 0-6.516-2.399-6.516-6.652V28.064h-4.547V23.99h1.56c2.4 0 3.508-.95 3.508-3.914v-3.53h4.751v7.444h4.955v4.073h-4.955v11.493c0 2.127 1.154 3.168 2.896 3.168h2.059v4.027h-3.71zm14.096-18.938c1.109-2.262 4.027-4.05 7.33-4.072v4.75c-4.638 0-7.126 1.698-7.126 6.653v11.607h-5.227v-22.76h5.023v3.823zm16.9 19.368c-3.687 0-7.013-1.765-7.013-6.2 0-4.864 3.96-6.38 8.71-7.24l3.44-.633c1.493-.294 2.104-.973 2.104-2.06 0-2.805-2.195-3.732-4.457-3.732-2.466 0-4.48 1.086-4.82 4.004l-4.683-.86c.792-4.706 4.186-6.878 9.82-6.878 4.547 0 9.14 1.63 9.14 8.032v8.824c0 2.15.566 2.76 2.15 2.76h.361v3.553h-2.466c-2.556 0-4.095-.905-4.615-3.01h-.25c-1.764 2.49-4.683 3.44-7.42 3.44zm1.223-4.096c3.574 0 6.357-2.647 6.357-6.81l-5.814 1.29c-2.399.452-3.733 1.267-3.733 2.986 0 1.788 1.402 2.534 3.19 2.534zm21.245-23.439c-1.765 0-3.213-1.448-3.213-3.19 0-1.765 1.448-3.19 3.213-3.19 1.72 0 3.19 1.425 3.19 3.19 0 1.742-1.47 3.19-3.19 3.19zm-2.67 27.105v-22.76h5.226v22.76h-5.226zm20.476 0c-4.073 0-6.516-2.399-6.516-6.652V28.064h-4.548V23.99h1.561c2.398 0 3.507-.95 3.507-3.914v-3.53h4.751v7.444h4.955v4.073h-4.955v11.493c0 2.127 1.154 3.168 2.896 3.168h2.06v4.027h-3.711zm16.674.43c-4.954 0-8.733-2.105-9.502-6.313l4.412-1.244c.61 2.58 2.534 3.823 5.09 3.823 1.878 0 3.915-.678 3.87-2.873-.046-2.58-3.35-2.896-6.992-4.118-2.941-.95-5.792-2.285-5.792-6.244 0-4.57 3.778-6.63 8.484-6.63 4.3 0 7.874 1.743 8.666 5.974l-4.118.973c-.61-2.399-2.42-3.349-4.525-3.349-1.878 0-3.71.724-3.71 2.602 0 2.172 2.67 2.624 5.565 3.394 3.552.927 7.444 2.285 7.444 7.104 0 5.045-4.208 6.9-8.892 6.9zM120.15 73.28l3.124 5.115 3.199-5.115h1.164l-3.847 5.984v4.628h-1.002v-4.554L119 73.28h1.15zm8.46 5.32c-.015-3.094 1.724-5.6 4.893-5.6 3.317 0 4.997 2.49 4.997 5.6 0 3.052-1.68 5.572-4.952 5.572s-4.938-2.52-4.938-5.571zm4.952 4.717c2.757 0 3.936-2.24 3.936-4.716 0-2.948-1.518-4.746-3.965-4.746-2.727 0-3.92 2.284-3.92 4.746 0 2.506 1.178 4.716 3.95 4.716zm6.943-3.419V73.28h1.002v6.323c0 2.624.943 3.714 3.11 3.714 2.284 0 3.11-1.208 3.11-3.714V73.28h1.002v6.618c0 2.756-1.37 4.274-4.112 4.274-2.771 0-4.112-1.562-4.112-4.274zm11.614-1.68h3.125c1.488 0 2.638-.62 2.638-2.108 0-1.592-1.238-1.975-2.58-1.975h-3.183v4.083zm3.154.855h-3.154v4.82h-1.002V73.28h4.156c2.329 0 3.611.825 3.611 2.786 0 1.341-.5 2.049-1.724 2.594 1.253.427 1.326 1.754 1.356 2.874.044 1.607.177 2.049.442 2.255v.103h-1.105c-.413-.722-.31-2.712-.472-3.522-.236-1.15-1.105-1.297-2.108-1.297zm10.79-.251v4.215h2.55c2.21 0 3.242-.294 3.242-2.137 0-1.754-1.238-2.078-3.125-2.078h-2.668zm0-4.687v3.832h2.534c2.093 0 2.771-.737 2.771-2.02 0-1.326-.795-1.812-2.992-1.812h-2.314zm3.33 9.757h-4.333V73.28h3.832c2.491 0 3.479 1.076 3.479 2.668 0 1.474-.84 2.137-1.695 2.284v.03c1.459.221 2.181 1.238 2.181 2.638 0 2.211-1.444 2.992-3.464 2.992zm12.706 0h-7.208V73.28h7.06v.855h-6.058v3.832h5.469v.855h-5.469v4.215h6.206v.855zm1.238-3.169h.973c.162 1.902 1.43 2.594 3.05 2.594 1.902 0 2.698-1.031 2.698-2.196 0-3.287-6.47-1.105-6.47-5.276 0-1.474 1.223-2.845 3.596-2.845 2.387 0 3.581 1.444 3.567 3.169h-.958c0-1.621-1.253-2.314-2.61-2.314-2.033 0-2.77 1.253-2.593 2.343.456 2.742 6.47.767 6.47 4.88 0 1.945-1.43 3.094-3.876 3.094-2.211 0-3.847-1.15-3.847-3.449zm8.607-6.588v-.855h7.724v.855h-3.36v9.757h-1.003v-9.757h-3.36zm14.209 9.757h-1.002V73.28h1.533l3.478 9.36h.03l3.42-9.36h1.517v10.612h-1.002V74.43h-.03l-3.478 9.462h-.943l-3.493-9.462h-.03v9.462zm10.907-5.291c-.015-3.095 1.725-5.601 4.894-5.601 3.316 0 4.996 2.49 4.996 5.6 0 3.052-1.68 5.572-4.952 5.572s-4.938-2.52-4.938-5.571zm4.952 4.716c2.757 0 3.936-2.24 3.936-4.716 0-2.948-1.518-4.746-3.965-4.746-2.727 0-3.92 2.284-3.92 4.746 0 2.506 1.178 4.716 3.95 4.716zm7.886.575h-1.002V73.28h1.533l3.478 9.36h.03l3.419-9.36h1.518v10.612h-1.002V74.43h-.03l-3.478 9.462h-.943l-3.494-9.462h-.03v9.462zm18.527 0h-7.207V73.28h7.06v.855h-6.058v3.832h5.468v.855h-5.468v4.215h6.205v.855zm8.903 0l-6.102-9.256h-.03v9.256h-1.002V73.28h1.135l6.131 9.271h.03V73.28h1.002v10.612h-1.164zm2.579-9.757v-.855h7.723v.855h-3.36v9.757h-1.002v-9.757h-3.361zm8.593 6.588h.973c.162 1.902 1.43 2.594 3.05 2.594 1.902 0 2.698-1.031 2.698-2.196 0-3.287-6.47-1.105-6.47-5.276 0-1.474 1.223-2.845 3.596-2.845 2.388 0 3.582 1.444 3.567 3.169h-.958c0-1.621-1.253-2.314-2.61-2.314-2.033 0-2.77 1.253-2.593 2.343.457 2.742 6.47.767 6.47 4.88 0 1.945-1.43 3.094-3.876 3.094-2.211 0-3.847-1.15-3.847-3.449zm14.562 3.17h-1.002V73.28h6.84v.855h-5.838v3.832h5.306v.855h-5.306v5.07zm6.884-5.292C289.93 75.506 291.67 73 294.839 73c3.316 0 4.997 2.49 4.997 5.6 0 3.052-1.68 5.572-4.953 5.572s-4.937-2.52-4.937-5.571zm4.952 4.716c2.756 0 3.935-2.24 3.935-4.716 0-2.948-1.518-4.746-3.965-4.746-2.726 0-3.92 2.284-3.92 4.746 0 2.506 1.179 4.716 3.95 4.716zm7.915-5.1h3.125c1.488 0 2.638-.618 2.638-2.107 0-1.592-1.238-1.975-2.58-1.975h-3.183v4.083zm3.154.856h-3.154v4.82h-1.002V73.28h4.156c2.329 0 3.611.825 3.611 2.786 0 1.341-.5 2.049-1.724 2.594 1.253.427 1.326 1.754 1.356 2.874.044 1.607.177 2.049.442 2.255v.103h-1.106c-.412-.722-.31-2.712-.471-3.522-.236-1.15-1.106-1.297-2.108-1.297zm12.897 4.82h-7.208V73.28h7.06v.855h-6.057v3.832h5.468v.855h-5.468v4.215h6.205v.855zm4.554 0l-3.684-10.613h1.046l3.198 9.433 3.184-9.433h1.047l-3.685 10.612h-1.106zm13.457 0h-7.207V73.28h7.06v.855h-6.058v3.832h5.468v.855h-5.468v4.215h6.205v.855zm2.786-5.675h3.125c1.488 0 2.638-.62 2.638-2.108 0-1.592-1.238-1.975-2.58-1.975h-3.183v4.083zm3.154.855h-3.154v4.82h-1.002V73.28h4.156c2.329 0 3.611.825 3.611 2.786 0 1.341-.5 2.049-1.724 2.594 1.253.427 1.326 1.754 1.356 2.874.044 1.607.177 2.049.442 2.255v.103h-1.105c-.413-.722-.31-2.712-.472-3.522-.236-1.15-1.106-1.297-2.108-1.297z" />
</svg>